<svg width="120" height="175" viewBox="0 0 120 175" fill="none" xmlns="http://www.w3.org/2000/svg">
<path d="M52.0472 102.687C50.5295 100.908 47.6693 101.09 46.402 103.046L31.1706 126.555C30.8187 127.098 30.6319 127.727 30.6319 128.369V162.318C30.6319 163.705 29.766 164.954 28.4438 165.473L4.80177 174.75C2.5048 175.651 0 174.005 0 171.595V44.9845C0 43.597 0.865915 42.3484 2.18814 41.8296L25.8301 32.5525C28.1271 31.6512 30.6319 33.2969 30.6319 35.7075V93.3524C30.6319 93.8441 31.1427 94.1801 31.6114 93.9966C31.7598 93.9386 31.8838 93.8337 31.9636 93.6988L51.793 60.1706L82.8298 10.9053C83.2213 10.2839 83.8075 9.80129 84.5021 9.52867L108.117 0.259981C111.257 -0.972428 114.182 2.42581 112.386 5.21923L72.0968 67.8879C71.2863 69.1486 71.4112 70.7757 72.4052 71.9052L119.158 125.034C120.713 126.801 120.028 129.531 117.811 130.401L88.6177 141.858C87.208 142.411 85.5926 142.014 84.6217 140.876L52.0472 102.687Z" fill="#00401A"/>
</svg>
